<?xml version="1.0" standalone="no"?>
<!DOCTYPE svg PUBLIC "-//W3C//DTD SVG 20010904//EN"
 "http://www.w3.org/TR/2001/REC-SVG-20010904/DTD/svg10.dtd">
<svg version="1.0" xmlns="http://www.w3.org/2000/svg"
 width="260.000000pt" height="260.000000pt" viewBox="0 0 260.000000 260.000000"
 preserveAspectRatio="xMidYMid meet">
<metadata>
Created by potrace 1.11, written by Peter Selinger 2001-2013
</metadata>
<g transform="translate(0.000000,260.000000) scale(0.100000,-0.100000)"
fill="#000000" stroke="none">
<path d="M800 1295 l0 -775 55 0 55 0 0 263 0 264 155 176 c85 97 158 178 162
180 5 3 123 -195 263 -439 l254 -444 63 0 c35 0 63 2 63 5 0 3 -127 224 -281
490 l-281 486 69 77 c38 42 151 170 252 285 l182 207 -68 0 -68 0 -375 -425
c-206 -234 -378 -425 -382 -425 -5 0 -8 191 -8 425 l0 425 -55 0 -55 0 0 -775z"/>
</g>
</svg>
